<?xml version="1.0" encoding="utf-8"?>
<!-- Generator: Adobe Illustrator 16.0.0, SVG Export Plug-In . SVG Version: 6.00 Build 0)  -->
<!DOCTYPE svg PUBLIC "-//W3C//DTD SVG 1.1//EN" "http://www.w3.org/Graphics/SVG/1.1/DTD/svg11.dtd">
<svg version="1.1" id="Layer_1" xmlns="http://www.w3.org/2000/svg" xmlns:xlink="http://www.w3.org/1999/xlink" x="0px" y="0px"
	 width="237.798px" height="237.798px" viewBox="0 0 237.798 237.798" enable-background="new 0 0 237.798 237.798"
	 xml:space="preserve">
<g>
	<defs>
		<rect id="SVGID_1_" width="237.798" height="237.798"/>
	</defs>
	<clipPath id="SVGID_2_">
		<use xlink:href="#SVGID_1_"  overflow="visible"/>
	</clipPath>
	<path clip-path="url(#SVGID_2_)" d="M116.793,148.792l-27.781-27.687c-6.677-6.679-6.893-17.275-0.776-24.208L64.889,73.548
		c-11.909,14.335-11.15,35.715,2.284,49.149l48.02,47.927c13.539,13.537,34.876,14.176,49.154,2.288l-23.351-23.349
		C134.029,155.709,123.433,155.432,116.793,148.792"/>
	<path clip-path="url(#SVGID_2_)" d="M96.996,88.082c1.619-1.619,1.619-4.239,0-5.858L79.422,64.649
		c-1.615-1.615-4.243-1.615-5.858,0l-2.929,2.929l23.432,23.433L96.996,88.082z"/>
	<path clip-path="url(#SVGID_2_)" d="M155.67,140.804c-1.62-1.618-4.239-1.618-5.858,0l-2.929,2.93l23.433,23.432l2.929-2.928
		c1.615-1.616,1.615-4.244,0-5.859L155.67,140.804z"/>
	<path clip-path="url(#SVGID_2_)" d="M177.153,56.505h-49.707c-2.285,0-4.143,1.858-4.143,4.142v33.138
		c0,2.285,1.857,4.143,4.143,4.143h8.284c2.288,0,4.142,1.854,4.142,4.142v6.569l9.498-9.498c0.777-0.777,1.831-1.213,2.929-1.213
		h24.854c2.284,0,4.142-1.858,4.142-4.143V60.647C181.295,58.363,179.438,56.505,177.153,56.505 M152.299,89.643H135.73
		c-2.288,0-4.143-1.855-4.143-4.142c0-2.288,1.854-4.142,4.143-4.142h16.568c2.288,0,4.143,1.854,4.143,4.142
		C156.441,87.788,154.587,89.643,152.299,89.643 M168.868,73.074H135.73c-2.288,0-4.143-1.854-4.143-4.142s1.854-4.143,4.143-4.143
		h33.138c2.288,0,4.144,1.855,4.144,4.143S171.156,73.074,168.868,73.074"/>
	<path clip-path="url(#SVGID_2_)" d="M118.898,0C53.233,0,0,53.232,0,118.898s53.233,118.9,118.899,118.9
		c65.666,0,118.899-53.234,118.899-118.9S184.564,0,118.898,0 M179.102,170.095l-5.856,5.856l-0.001,0.002
		c-18.884,18.883-47.174,17.266-63.906,0.531l-48.02-47.927c-18.503-18.502-16.563-48.131,0.53-63.909l5.857-5.858
		c4.857-4.857,12.718-4.857,17.575,0l17.574,17.575c4.857,4.857,4.857,12.717,0,17.574l-7.988,7.989
		c-3.68,3.679-3.68,9.634,0,13.313l27.78,27.688c0.002,0.001,0.004,0.003,0.006,0.004c3.68,3.68,9.635,3.68,13.313,0l7.989-7.988
		c4.856-4.855,12.717-4.855,17.573,0l17.574,17.574C183.947,157.364,183.947,165.249,179.102,170.095 M189.58,93.786
		c0,6.852-5.575,12.427-12.428,12.427h-23.138l-15.356,15.354c-2.6,2.602-7.07,0.751-7.07-2.928v-12.427h-4.143
		c-6.852,0-12.427-5.575-12.427-12.427V60.646c0-6.852,5.575-12.426,12.427-12.426h49.707c6.853,0,12.428,5.575,12.428,12.427
		V93.786z"/>
</g>
</svg>
