<?xml version="1.0" encoding="utf-8"?>
<!-- Generator: Adobe Illustrator 16.0.0, SVG Export Plug-In . SVG Version: 6.00 Build 0)  -->
<!DOCTYPE svg PUBLIC "-//W3C//DTD SVG 1.1//EN" "http://www.w3.org/Graphics/SVG/1.1/DTD/svg11.dtd">
<svg version="1.1" id="Layer_1" xmlns="http://www.w3.org/2000/svg" xmlns:xlink="http://www.w3.org/1999/xlink" x="0px" y="0px"
	 width="237.798px" height="237.798px" viewBox="0 0 237.798 237.798" enable-background="new 0 0 237.798 237.798"
	 xml:space="preserve">
<polygon points="131.529,162.133 128.469,172.208 138.927,169.312 157.894,150.38 150.608,143.097 "/>
<g>
	<defs>
		<rect id="SVGID_1_" width="237.798" height="237.798"/>
	</defs>
	<clipPath id="SVGID_2_">
		<use xlink:href="#SVGID_1_"  overflow="visible"/>
	</clipPath>
	<path clip-path="url(#SVGID_2_)" d="M158.895,134.828l-0.994,0.992l7.283,7.283l0.998-0.995c2.005-2.005,2.005-5.271-0.004-7.28
		C164.17,132.819,160.902,132.819,158.895,134.828"/>
	<path clip-path="url(#SVGID_2_)" d="M118.899,0C53.233,0,0,53.233,0,118.899c0,65.667,53.233,118.899,118.899,118.899
		c65.666,0,118.898-53.232,118.898-118.899C237.798,53.233,184.565,0,118.899,0 M97.644,184.822H80.419
		c-11.359,0-20.601-9.241-20.601-20.602V73.577c0-11.359,9.242-20.601,20.601-20.601h63.319c11.359,0,20.601,9.242,20.601,20.601
		v31.673c0,2.845-2.306,5.151-5.149,5.151c-2.846,0-5.151-2.306-5.151-5.151V73.577c0-5.68-4.62-10.3-10.3-10.3H80.419
		c-5.68,0-10.301,4.62-10.301,10.3v90.644c0,5.681,4.621,10.301,10.301,10.301h17.225c2.844,0,5.15,2.307,5.15,5.149
		C102.794,182.516,100.488,184.822,97.644,184.822 M85.541,114.779c-2.845,0-5.151-2.306-5.151-5.151c0-2.844,2.306-5.15,5.151-5.15
		h53.047c2.845,0,5.15,2.306,5.15,5.15c0,2.845-2.306,5.151-5.15,5.151H85.541z M122.908,130.23c0,2.844-2.306,5.148-5.15,5.148
		H85.541c-2.845,0-5.151-2.305-5.151-5.148c0-2.846,2.306-5.15,5.151-5.15h32.217C120.603,125.08,122.908,127.385,122.908,130.23
		 M138.588,94.178H85.541c-2.845,0-5.151-2.305-5.151-5.15c0-2.845,2.306-5.151,5.151-5.151h53.047c2.845,0,5.15,2.306,5.15,5.151
		C143.738,91.873,141.433,94.178,138.588,94.178 M173.462,149.396l-28.217,28.162c-0.628,0.629-1.408,1.081-2.263,1.318
		l-20.788,5.758c-0.454,0.126-0.917,0.188-1.375,0.188c-1.369,0-2.704-0.547-3.687-1.555c-1.312-1.345-1.788-3.296-1.241-5.094
		l6.157-20.271c0.247-0.813,0.689-1.55,1.29-2.149l28.275-28.212c6.021-6.021,15.822-6.021,21.847,0.003
		C179.485,133.569,179.485,143.371,173.462,149.396"/>
</g>
</svg>
