<?xml version="1.0" encoding="utf-8"?>
<!-- Generator: Adobe Illustrator 16.0.0, SVG Export Plug-In . SVG Version: 6.00 Build 0)  -->
<!DOCTYPE svg PUBLIC "-//W3C//DTD SVG 1.1//EN" "http://www.w3.org/Graphics/SVG/1.1/DTD/svg11.dtd">
<svg version="1.1" id="Layer_1" xmlns="http://www.w3.org/2000/svg" xmlns:xlink="http://www.w3.org/1999/xlink" x="0px" y="0px"
	 width="237.798px" height="237.798px" viewBox="0 0 237.798 237.798" enable-background="new 0 0 237.798 237.798"
	 xml:space="preserve">
<g>
	<defs>
		<rect id="SVGID_1_" width="237.798" height="237.798"/>
	</defs>
	<clipPath id="SVGID_2_">
		<use xlink:href="#SVGID_1_"  overflow="visible"/>
	</clipPath>
	<path clip-path="url(#SVGID_2_)" d="M178.57,97.687h-29.694v21.21c0,7.017-5.709,12.726-12.726,12.726H97.406v21.21
		c0,2.339,1.903,4.242,4.242,4.242h42.985c0.838,0,1.656,0.248,2.354,0.713l18.856,12.571v-9.042c0-2.344,1.899-4.242,4.242-4.242
		h8.484c2.339,0,4.242-1.903,4.242-4.242v-50.905C182.813,99.589,180.909,97.687,178.57,97.687"/>
	<path clip-path="url(#SVGID_2_)" d="M140.392,118.896V67.993c0-2.339-1.902-4.243-4.242-4.243H59.228
		c-2.339,0-4.242,1.904-4.242,4.243v50.904c0,2.339,1.903,4.243,4.242,4.243h8.484c2.343,0,4.242,1.899,4.242,4.242v9.041
		l18.833-12.557c0.004-0.002,0.008-0.005,0.012-0.008c0.696-0.466,1.544-0.719,2.365-0.719h42.985
		C138.489,123.14,140.392,121.235,140.392,118.896 M101.648,106.171H67.712c-2.343,0-4.242-1.9-4.242-4.242
		c0-2.343,1.899-4.242,4.242-4.242h33.936c2.343,0,4.242,1.899,4.242,4.242C105.89,104.271,103.991,106.171,101.648,106.171
		 M127.666,89.203H67.712c-2.343,0-4.242-1.899-4.242-4.242c0-2.343,1.899-4.242,4.242-4.242h59.954
		c2.343,0,4.242,1.899,4.242,4.242C131.908,87.304,130.009,89.203,127.666,89.203"/>
	<path clip-path="url(#SVGID_2_)" d="M118.899,0C53.233,0,0,53.232,0,118.898s53.233,118.9,118.899,118.9
		s118.897-53.234,118.897-118.9S184.565,0,118.899,0 M191.296,152.833c0,7.018-5.709,12.727-12.726,12.727h-4.242v12.726
		c0,3.398-3.791,5.4-6.595,3.529L143.35,165.56h-41.701c-7.018,0-12.727-5.709-12.727-12.727v-17.525l-18.857,12.571
		c-2.8,1.866-6.595-0.133-6.595-3.529v-12.728h-4.242c-7.017,0-12.726-5.709-12.726-12.726V67.993
		c0-7.017,5.709-12.726,12.726-12.726h76.923c7.017,0,12.726,5.709,12.726,12.726v21.21h29.694c7.018,0,12.726,5.709,12.726,12.726
		V152.833z"/>
</g>
</svg>
